<svg xmlns="http://www.w3.org/2000/svg" viewBox="0 0 750 500"><g id="freepik--background-complete--inject-208"><path d="M616,109.31c.59-4.28-5.45-7.8-10-8.17-2.17-.17-4.41.16-6.46-.55C595.07,99,593.29,93.3,589,91.48c-3.24-1.37-7-.15-10.11,1.43s-6.24,3.57-9.75,3.79c-3.05.2-6.37-.94-9,.55-2,1.11-3,3.41-4.87,4.76s-4.13,1.6-6.36,1.72-4.53.15-6.56,1.08-3.7,3.07-3.28,5.26Z" style="fill:#ebebeb"></path><path d="M443.12,348.91c.81-1.09-34.4-56.61-34.4-56.61l-25.2-4-25.94,33.9-11-5.16-77,30.09-54-68.8-8.24,8.57-21.64-32.17L171.8,285.52l-21.42,53.09L135.89,327.8,95.65,368.73H480.56S442.3,350,443.12,348.91Z" style="fill:#f5f5f5"></path><path d="M582.74,367.76c0,.14-114.95.26-256.72.26s-256.76-.12-256.76-.26S184.2,367.5,326,367.5,582.74,367.62,582.74,367.76Z" style="fill:#e0e0e0"></path><path d="M564.09,382.53c0,.15-25,.27-55.89.27s-55.89-.12-55.89-.27,25-.26,55.89-.26S564.09,382.39,564.09,382.53Z" style="fill:#e0e0e0"></path><path d="M176.41,152.71c.87-6.25-8-11.4-14.6-11.93-3.16-.26-6.44.23-9.44-.82-6.49-2.26-9.09-10.65-15.42-13.32-4.74-2-10.19-.22-14.79,2.09S113,134,107.9,134.28c-4.46.28-9.31-1.37-13.21.81-2.91,1.62-4.43,5-7.11,6.95s-6,2.35-9.3,2.53-6.63.21-9.59,1.56-5.42,4.49-4.8,7.7Z" style="fill:#ebebeb"></path><path d="M633.59,256.43c.75-5.44-6.93-9.92-12.7-10.38-2.75-.23-5.61.2-8.21-.71-5.65-2-7.91-9.27-13.42-11.59-4.12-1.74-8.87-.19-12.86,1.82s-7.94,4.54-12.41,4.82c-3.88.25-8.09-1.19-11.49.71-2.53,1.41-3.86,4.33-6.19,6.05s-5.26,2-8.09,2.19-5.76.18-8.34,1.36-4.71,3.91-4.18,6.7Z" style="fill:#f5f5f5"></path><path d="M444.65,85.62c.53-3.84-4.89-7-9-7.33-1.95-.16-4,.14-5.8-.5-4-1.39-5.58-6.54-9.47-8.18-2.91-1.23-6.26-.13-9.08,1.28s-5.61,3.21-8.76,3.41c-2.73.18-5.71-.84-8.11.5-1.78,1-2.72,3-4.37,4.27a10.41,10.41,0,0,1-5.71,1.55,16.17,16.17,0,0,0-5.88,1c-1.82.83-3.33,2.76-2.95,4.72Z" style="fill:#f5f5f5"></path><path d="M724,455c-1.4-27.61-.79-18-2.19-45.62l-49.22-27.42-44.25,17.4-7.78,12.61a57.65,57.65,0,0,1-18.82,18.72c-9.46,5.83-22.22,15-26.84,24.31Z" style="fill:#e0e0e0"></path><polygon points="30.86 387.59 81.4 404.34 140.91 454.97 30.86 454.97 30.86 387.59" style="fill:#e0e0e0"></polygon><path d="M638.17,320.45l10.5,74.79,2.73.08C649.66,369.93,647.8,344,638.17,320.45Z" style="fill:#e0e0e0"></path><path d="M667.33,317c-7.33,8-10.28,19.09-12.14,29.81-2.64,15.2-2.88,33.15-2.09,48.56l3.84.09A210.78,210.78,0,0,1,667.33,317Z" style="fill:#e0e0e0"></path><path d="M640.1,364.7c-.85-3.71-1.81-7.48-3.92-10.63-2.86-4.27-7.52-7-12.2-9.06s-9.61-3.78-13.84-6.68c4.72,7.74,15.44,9.8,20.89,17,2.72,3.6,3.85,8.12,4.91,12.5,2.32,9.56,3.75,17.83,6.07,27.39h3.1A244.83,244.83,0,0,0,640.1,364.7Z" style="fill:#e0e0e0"></path><path d="M659.74,395.32s2.63-29.7,4.58-35.15,20.38-20.52,20.2-19.81-13.82,17.19-15.77,20.56-5.32,34.4-5.32,34.4Z" style="fill:#e0e0e0"></path><path d="M547.93,390.2a3.2,3.2,0,0,1-.64.05l-1.81.05-6.68.08-22,.08-22-.08-6.67-.08-1.82-.05a3.15,3.15,0,0,1-.63-.05,2.42,2.42,0,0,1,.63-.05l1.82,0,6.67-.08,22-.08,22,.08,6.68.08,1.81,0A2.46,2.46,0,0,1,547.93,390.2Z" style="fill:#e0e0e0"></path></g><g id="freepik--Plants--inject-208"><path d="M585.7,405a5.89,5.89,0,0,1,2.4,3.94,10.39,10.39,0,0,1-.42,4.69,18.48,18.48,0,0,1-5.38,7.72c-2.13-2.65-2-6.59-1.85-8.59.29-3.16,2.71-8.69,5.25-7.76" style="fill:#0EA5E9"></path><path d="M584.35,426.8a5,5,0,0,1,2.44-4.42,6.63,6.63,0,0,1,5.12-.65,2.8,2.8,0,0,1,2,1.33,2.16,2.16,0,0,1-.35,2.16,4.45,4.45,0,0,1-1.87,1.28c-2.43,1-5,1.48-7.3.3" style="fill:#0EA5E9"></path><path d="M579.48,435.41a3,3,0,0,1,.2-.6c.15-.42.35-1,.6-1.61a17.59,17.59,0,0,1,2.66-5,10.8,10.8,0,0,1,4.54-3.37,7.13,7.13,0,0,1,1.68-.41c.2,0,.36,0,.47,0h.16a10.83,10.83,0,0,0-2.25.59,11,11,0,0,0-4.43,3.36,19.47,19.47,0,0,0-2.69,4.93c-.27.67-.5,1.21-.66,1.58A5.33,5.33,0,0,1,579.48,435.41Z" style="fill:#263238"></path><path d="M584.22,409.35a1.17,1.17,0,0,1,0,.28q0,.3-.09.78c-.08.68-.21,1.65-.39,2.86-.35,2.42-.88,5.74-1.55,9.41s-1.35,7-1.88,9.34c-.26,1.2-.48,2.16-.64,2.82-.08.31-.15.57-.19.76a1.1,1.1,0,0,1-.09.27s0-.1,0-.28.09-.45.15-.77l.58-2.83c.48-2.39,1.14-5.69,1.81-9.35s1.22-7,1.61-9.39c.2-1.19.35-2.15.47-2.85.05-.32.1-.58.13-.78A1.16,1.16,0,0,1,584.22,409.35Z" style="fill:#263238"></path><path d="M579.66,427.85a11.79,11.79,0,0,0-4.81-9.62c-.77-.56-1.83-1-2.63-.51s-.85,1.66-.67,2.59a10,10,0,0,0,8,7.77" style="fill:#0EA5E9"></path><path d="M574.75,421.14a3.87,3.87,0,0,1,.49.33,5.3,5.3,0,0,1,.55.43,8.93,8.93,0,0,1,.68.62c.24.25.51.51.77.82a10.89,10.89,0,0,1,.78,1A13.09,13.09,0,0,1,579.4,427a13.52,13.52,0,0,1,.7,2.86,11.65,11.65,0,0,1,.07,1.29,9.93,9.93,0,0,1,0,1.12,7.21,7.21,0,0,1-.12.91,6.39,6.39,0,0,1-.14.69,3.54,3.54,0,0,1-.17.56c-.05,0,.18-.82.27-2.17a10,10,0,0,0,0-1.11,11.41,11.41,0,0,0-.1-1.26,13,13,0,0,0-.7-2.81,13.48,13.48,0,0,0-1.34-2.57,10.79,10.79,0,0,0-.75-1c-.25-.31-.51-.58-.74-.83C575.42,421.66,574.72,421.18,574.75,421.14Z" style="fill:#263238"></path><path d="M117.77,453.91l.42-.05c-.87-13-7.4-26.94-12.14-39.13-4.87-12.55-9.44-25.43-20.53-33.05a764.44,764.44,0,0,1,32.25,72.23" style="fill:#455a64"></path><path d="M125.55,387.83s0,.06,0,.17l-.15.48-.62,1.86c-.13.4-.28.85-.45,1.33l-.48,1.61c-.34,1.15-.77,2.46-1.13,3.93-.19.73-.4,1.5-.61,2.3s-.38,1.64-.58,2.51c-.42,1.73-.76,3.6-1.14,5.57-.68,4-1.27,8.31-1.62,12.92s-.37,9-.28,13c.09,2,.14,3.9.3,5.67.07.89.11,1.75.2,2.57s.17,1.62.24,2.37c.14,1.51.36,2.86.51,4.06l.23,1.66c.09.51.17,1,.24,1.39.13.82.23,1.47.31,1.93l.07.5a1.06,1.06,0,0,1,0,.17s-.84-3.66-1.57-9.69c-.08-.75-.17-1.54-.26-2.37s-.14-1.68-.22-2.57c-.17-1.78-.23-3.68-.32-5.69-.11-4-.06-8.43.26-13.05s1-9,1.65-12.94c.38-2,.73-3.85,1.16-5.58.21-.87.39-1.71.6-2.51s.42-1.57.62-2.3c.38-1.47.82-2.77,1.17-3.93l.51-1.6.47-1.33c.28-.78.51-1.4.66-1.83q.12-.3.18-.48Z" style="fill:#455a64"></path><rect x="113.4" y="386.09" width="22.32" height="6.65" rx="2.98" transform="translate(-284.06 403.09) rotate(-74.18)" style="fill:#f5f5f5"></rect><path d="M121.86,400.25s.18.05.53.07a2.92,2.92,0,0,0,1.48-.27,2.86,2.86,0,0,0,1.54-1.72c.26-.9.54-1.95.87-3.1.64-2.31,1.41-5.05,2.26-8.09.42-1.52.87-3.12,1.34-4.77a2.85,2.85,0,0,0-.44-2.38,2.74,2.74,0,0,0-.95-.84,5.34,5.34,0,0,0-1.26-.43A2.84,2.84,0,0,0,124,380.1a5.65,5.65,0,0,0-.41,1.2c-.47,1.65-.93,3.25-1.36,4.77-.87,3-1.66,5.76-2.32,8.07-.17.57-.32,1.12-.47,1.64a5.07,5.07,0,0,0-.3,1.46,3,3,0,0,0,.93,2.12,3.18,3.18,0,0,0,1.32.72l.38.12.13.05-.14,0-.39-.1a3.11,3.11,0,0,1-1.37-.69,3.08,3.08,0,0,1-1-2.2,5.51,5.51,0,0,1,.29-1.51c.14-.52.29-1.07.45-1.64.65-2.31,1.42-5,2.27-8.09.42-1.52.87-3.12,1.34-4.77a5.69,5.69,0,0,1,.43-1.26,3.18,3.18,0,0,1,.9-1,3.13,3.13,0,0,1,2.69-.49,6.6,6.6,0,0,1,1.31.46,3.06,3.06,0,0,1,1,.92,3.12,3.12,0,0,1,.48,2.61c-.47,1.65-.93,3.25-1.36,4.77l-2.32,8.07c-.33,1.15-.62,2.18-.91,3.1a3,3,0,0,1-3.17,2A2,2,0,0,1,121.86,400.25Z" style="fill:#263238"></path><path d="M120.57,453.86c-.41-10.05-.42-21.11,5.28-29.41,3.23-4.69,8.09-8.08,13.29-10.41A93.1,93.1,0,0,1,155.45,409c-6.17,8.64-20.14,8.74-26,17.56-1.76,2.62-2.58,5.73-3.37,8.78-1.65,6.3-3.09,12.28-4.74,18.59" style="fill:#455a64"></path><path d="M76.52,418.56h.14l.4,0c.35.05.87.09,1.53.22a36.34,36.34,0,0,1,5.51,1.38,39.47,39.47,0,0,1,7.67,3.51,43,43,0,0,1,4.1,2.82,39,39,0,0,1,4,3.61,34.23,34.23,0,0,1,3.4,4.14c.52.69,1,1.42,1.42,2.11s.86,1.41,1.23,2.11a42.45,42.45,0,0,1,3.32,7.75,35.91,35.91,0,0,1,1.31,5.53c.12.66.15,1.18.19,1.53l0,.4c0,.09,0,.14,0,.14l0-.13c0-.11,0-.24-.06-.4-.07-.35-.11-.87-.25-1.52a38.75,38.75,0,0,0-1.39-5.49,43.09,43.09,0,0,0-3.35-7.69c-.37-.7-.81-1.38-1.23-2.09s-.9-1.41-1.41-2.1a35.58,35.58,0,0,0-3.39-4.1,38.34,38.34,0,0,0-3.92-3.58,44,44,0,0,0-4.07-2.82,39.55,39.55,0,0,0-13.07-5c-.66-.15-1.17-.2-1.52-.27l-.4-.07Z" style="fill:#455a64"></path><rect x="73.19" y="406.1" width="6.65" height="22.32" rx="2.98" transform="translate(-332.69 305.4) rotate(-64.32)" style="fill:#f5f5f5"></rect><path d="M86.73,421.78s.08-.17.16-.51A2.93,2.93,0,0,0,85.44,418c-.84-.42-1.83-.87-2.9-1.39L75,413l-4.48-2.14a2.85,2.85,0,0,0-2.42,0,2.94,2.94,0,0,0-1,.8,6.11,6.11,0,0,0-.64,1.16,2.86,2.86,0,0,0,0,2.49,3,3,0,0,0,.78,1,5.24,5.24,0,0,0,1.12.61L72.81,419l7.56,3.67,1.53.74a5.08,5.08,0,0,0,1.39.55,3,3,0,0,0,2.25-.56,3.16,3.16,0,0,0,.93-1.17l.19-.36a.86.86,0,0,1,.07-.12.44.44,0,0,1,0,.13l-.16.37a3.15,3.15,0,0,1-.92,1.24,3.06,3.06,0,0,1-2.34.62,5.17,5.17,0,0,1-1.44-.54l-1.54-.73-7.58-3.61c-1.42-.69-2.92-1.4-4.47-2.14a5.59,5.59,0,0,1-1.16-.65,3.2,3.2,0,0,1-.87-1.06,3.11,3.11,0,0,1,0-2.73,5.78,5.78,0,0,1,.67-1.21,3.09,3.09,0,0,1,3.74-.89l4.46,2.15,7.56,3.67c1.07.52,2,1,2.9,1.42A3,3,0,0,1,87,419.75a2.83,2.83,0,0,1,0,1.54A1.71,1.71,0,0,1,86.73,421.78Z" style="fill:#263238"></path></g><g id="freepik--Route--inject-208"><path d="M659.2,188.94a8.94,8.94,0,0,1,3-.26,9.06,9.06,0,0,1,3,.26,9.06,9.06,0,0,1-3,.26A8.94,8.94,0,0,1,659.2,188.94Z" style="fill:#263238"></path><path d="M635.22,188.94a69.25,69.25,0,0,1,12,0,69.25,69.25,0,0,1-12,0Z" style="fill:#263238"></path><path d="M611.25,188.94a69.13,69.13,0,0,1,12,0,69.13,69.13,0,0,1-12,0Z" style="fill:#263238"></path><path d="M587.27,188.94a69.25,69.25,0,0,1,12,0,69.25,69.25,0,0,1-12,0Z" style="fill:#263238"></path><path d="M563.3,188.94a69.13,69.13,0,0,1,12,0,69.13,69.13,0,0,1-12,0Z" style="fill:#263238"></path><path d="M539.34,188.41a54.61,54.61,0,0,1,6,.16,44.45,44.45,0,0,1,6,.37,28.41,28.41,0,0,1-6,.15A25.13,25.13,0,0,1,539.34,188.41Z" style="fill:#263238"></path><path d="M518.14,178.71c.13-.11,1.79,2,4.46,3.93s5.16,2.93,5.09,3.09a5.16,5.16,0,0,1-1.68-.55,19.92,19.92,0,0,1-3.72-2.12A13.57,13.57,0,0,1,518.14,178.71Z" style="fill:#263238"></path><path d="M511.59,156.05c.13,0,.3,2.67.71,5.94s1,5.89.82,5.93a20.35,20.35,0,0,1-1.34-5.86A21.57,21.57,0,0,1,511.59,156.05Z" style="fill:#263238"></path><path d="M502.86,134.22a19.24,19.24,0,0,1,3.75,4.7,18.19,18.19,0,0,1,2.51,5.47c-.14.06-1.21-2.4-2.95-5.2S502.74,134.32,502.86,134.22Z" style="fill:#263238"></path><path d="M483.18,121.05a19.38,19.38,0,0,1,5.66,2,19.85,19.85,0,0,1,5.08,3.22c-.08.13-2.34-1.31-5.3-2.75S483.13,121.19,483.18,121.05Z" style="fill:#263238"></path><path d="M459.46,120.13a19.63,19.63,0,0,1,5.91-1.11,34.6,34.6,0,0,1,4.26,0,6.59,6.59,0,0,1,1.75.17,5.36,5.36,0,0,1-1.75.2c-1.09,0-2.58.07-4.22.2C462.13,119.78,459.49,120.28,459.46,120.13Z" style="fill:#263238"></path><path d="M438.63,131.34a18.72,18.72,0,0,1,4.39-4.12,19,19,0,0,1,5.22-3c.07.14-2.27,1.45-4.91,3.41S438.74,131.45,438.63,131.34Z" style="fill:#263238"></path><path d="M428.16,152.43A23.51,23.51,0,0,1,431.63,141c.14.07-1,2.48-2,5.64S428.32,152.45,428.16,152.43Z" style="fill:#263238"></path><path d="M427.61,176.39a35.2,35.2,0,0,1-.17-6,34.08,34.08,0,0,1,.35-6,35.28,35.28,0,0,1,.17,6A34.08,34.08,0,0,1,427.61,176.39Z" style="fill:#263238"></path><path d="M427.27,200.36a34.38,34.38,0,0,1-.18-6,35.16,35.16,0,0,1,.35-6,34.38,34.38,0,0,1,.18,6A35.28,35.28,0,0,1,427.27,200.36Z" style="fill:#263238"></path><path d="M426.92,224.33a35,35,0,0,1-.17-6,34.08,34.08,0,0,1,.35-6,35.12,35.12,0,0,1,.17,6A33.91,33.91,0,0,1,426.92,224.33Z" style="fill:#263238"></path><path d="M420.31,246.93c-.13-.09,1.38-2.31,2.82-5.27s2.23-5.51,2.38-5.47a17.8,17.8,0,0,1-1.92,5.7A18.16,18.16,0,0,1,420.31,246.93Z" style="fill:#263238"></path><path d="M401.51,261.24c-.05-.14,2.44-1.14,5.32-2.73s5.06-3.15,5.15-3a19.08,19.08,0,0,1-4.9,3.48A19.3,19.3,0,0,1,401.51,261.24Z" style="fill:#263238"></path><path d="M377.87,264a38.59,38.59,0,0,1,6-.25l2.33,0,1.9,0a6.07,6.07,0,0,1,1.76.11,5.82,5.82,0,0,1-1.75.26l-1.91.14c-.71,0-1.5,0-2.33,0A31.63,31.63,0,0,1,377.87,264Z" style="fill:#263238"></path><path d="M355.22,257.12c.09-.13,2.36,1.29,5.35,2.66s5.53,2.22,5.49,2.37a19.21,19.21,0,0,1-5.71-1.9A19.56,19.56,0,0,1,355.22,257.12Z" style="fill:#263238"></path><path d="M340.27,238.87c.15-.05,1.15,2.44,2.82,5.27s3.33,4.93,3.21,5a18.43,18.43,0,0,1-3.66-4.77A18.18,18.18,0,0,1,340.27,238.87Z" style="fill:#263238"></path><path d="M338,215.17a35.15,35.15,0,0,1,.26,6,35.22,35.22,0,0,1-.26,6,34.12,34.12,0,0,1-.26-6A34,34,0,0,1,338,215.17Z" style="fill:#263238"></path><path d="M338,191.2a35.15,35.15,0,0,1,.26,6,35.15,35.15,0,0,1-.26,6,34,34,0,0,1-.26-6A34,34,0,0,1,338,191.2Z" style="fill:#263238"></path><path d="M338,167.22a35.32,35.32,0,0,1,.26,6,35.15,35.15,0,0,1-.26,6,34,34,0,0,1-.26-6A34.12,34.12,0,0,1,338,167.22Z" style="fill:#263238"></path><path d="M338,143.25a35.15,35.15,0,0,1,.26,6,35.32,35.32,0,0,1-.26,6,34.12,34.12,0,0,1-.26-6A34,34,0,0,1,338,143.25Z" style="fill:#263238"></path><path d="M338,119.27a6.36,6.36,0,0,1,.23,1.76c.05,1.08.08,2.58.08,4.24a35.15,35.15,0,0,1-.26,6,34,34,0,0,1-.26-6c0-1.66,0-3.16.07-4.24A6.18,6.18,0,0,1,338,119.27Z" style="fill:#263238"></path><path d="M328.9,97.55a18.64,18.64,0,0,1,3.82,4.65,18.14,18.14,0,0,1,2.55,5.45c-.15.06-1.23-2.4-3-5.17S328.78,97.65,328.9,97.55Z" style="fill:#263238"></path><path d="M308.76,85.16a26.58,26.58,0,0,1,11,4.73c-.08.13-2.4-1.22-5.42-2.51S308.72,85.31,308.76,85.16Z" style="fill:#263238"></path><path d="M285,84.38a19.77,19.77,0,0,1,5.93-1c1.67-.09,3.17,0,4.26,0a6,6,0,0,1,1.75.19,5.86,5.86,0,0,1-1.75.18c-1.09.06-2.59,0-4.23.14C287.64,84.1,285,84.53,285,84.38Z" style="fill:#263238"></path><path d="M263.85,95.05a25.93,25.93,0,0,1,9.79-6.85c.07.14-2.3,1.39-5,3.28S264,95.16,263.85,95.05Z" style="fill:#263238"></path><path d="M252.76,115.82a17.76,17.76,0,0,1,1.18-5.9,17.65,17.65,0,0,1,2.64-5.4c.14.07-1.1,2.45-2.15,5.57S252.91,115.84,252.76,115.82Z" style="fill:#263238"></path><path d="M252.35,139.77a34,34,0,0,1-.26-6,34,34,0,0,1,.26-6,35.15,35.15,0,0,1,.26,6A35.15,35.15,0,0,1,252.35,139.77Z" style="fill:#263238"></path><path d="M252.35,163.75a34,34,0,0,1-.26-6,34.12,34.12,0,0,1,.26-6,35.32,35.32,0,0,1,.26,6A35.15,35.15,0,0,1,252.35,163.75Z" style="fill:#263238"></path><path d="M251.74,187.69c-.15,0,.3-2.68.34-6a34.39,34.39,0,0,1,.27-6,34.6,34.6,0,0,1,.25,6A17.65,17.65,0,0,1,251.74,187.69Z" style="fill:#263238"></path><path d="M240,208.1c-.1-.12,1.87-1.94,4-4.49s3.48-4.83,3.62-4.75A24.84,24.84,0,0,1,240,208.1Z" style="fill:#263238"></path><path d="M218.58,218.17c0-.15,2.61-.63,5.76-1.6s5.6-2,5.67-1.9a19.69,19.69,0,0,1-5.52,2.4A19.33,19.33,0,0,1,218.58,218.17Z" style="fill:#263238"></path><path d="M194.63,219a36,36,0,0,1,6-.34,33.39,33.39,0,0,1,6,.18,36,36,0,0,1-6,.34A33.47,33.47,0,0,1,194.63,219Z" style="fill:#263238"></path><path d="M170.66,219.31a34.72,34.72,0,0,1,6-.34,35.2,35.2,0,0,1,6,.17,34.08,34.08,0,0,1-6,.35A35.77,35.77,0,0,1,170.66,219.31Z" style="fill:#263238"></path><path d="M146.69,219.65a34.08,34.08,0,0,1,6-.35,34.62,34.62,0,0,1,6,.18,34.72,34.72,0,0,1-6,.34A35.2,35.2,0,0,1,146.69,219.65Z" style="fill:#263238"></path><path d="M122.72,220a34.72,34.72,0,0,1,6-.34,35,35,0,0,1,6,.17,33.87,33.87,0,0,1-6,.35A34.46,34.46,0,0,1,122.72,220Z" style="fill:#263238"></path><path d="M104.66,220.23a9.27,9.27,0,0,1,3-.3,9,9,0,0,1,3,.22,9,9,0,0,1-3,.3A8.46,8.46,0,0,1,104.66,220.23Z" style="fill:#263238"></path><path d="M304.1,68.69a7.13,7.13,0,1,0-13.27,3.61h0l0,0c.28.46.62.79,1,1.28L296,79.08a1.29,1.29,0,0,0,2.05,0l4.07-5.39a16.93,16.93,0,0,0,1-1.37v0h0A7.12,7.12,0,0,0,304.1,68.69ZM297,71.8a3.14,3.14,0,1,1,3.14-3.14A3.14,3.14,0,0,1,297,71.8Z" style="fill:#0EA5E9"></path><path d="M574.42,174.25a7.13,7.13,0,1,0-13.28,3.6h0l0,0c.27.46.61.79,1,1.27l4.14,5.48a1.28,1.28,0,0,0,2,0l4.07-5.39a16.93,16.93,0,0,0,1-1.37l0,0h0A7.12,7.12,0,0,0,574.42,174.25Zm-7.13,3.1a3.14,3.14,0,1,1,3.13-3.14A3.13,3.13,0,0,1,567.29,177.35Z" style="fill:#0EA5E9"></path><path d="M474.23,103.65a7.13,7.13,0,1,0-13.27,3.6h0l0,0c.27.46.61.79,1,1.28l4.14,5.48a1.29,1.29,0,0,0,2.05,0l4.07-5.39a16.93,16.93,0,0,0,1-1.37v0h0A7.11,7.11,0,0,0,474.23,103.65Zm-7.12,3.1a3.14,3.14,0,1,1,3.13-3.14A3.14,3.14,0,0,1,467.11,106.75Z" style="fill:#455a64"></path><path d="M180.38,198.55A8.81,8.81,0,1,0,164,203h0l0,0a19.13,19.13,0,0,0,1.19,1.57l5.11,6.78a1.58,1.58,0,0,0,2.54,0l5-6.66a18.47,18.47,0,0,0,1.28-1.7l0,0h0A8.77,8.77,0,0,0,180.38,198.55Zm-8.82,3.84a3.88,3.88,0,1,1,3.88-3.88A3.88,3.88,0,0,1,171.56,202.39Z" style="fill:#455a64"></path></g><g id="freepik--Rocks--inject-208"><polyline points="322.25 454.97 297.41 428.76 277.05 429.91 262.63 435.61 253.48 454.97" style="fill:#f5f5f5"></polyline><polygon points="277.05 429.91 298.14 454.97 322.25 454.97 297.41 428.76 277.05 429.91" style="fill:#e0e0e0"></polygon><path d="M253.48,455a1.87,1.87,0,0,1,.14-.37l.45-1.05c.44-.95,1-2.27,1.8-3.94l6.56-14.09,0-.08.09,0,14.4-5.74H277l9.78-.56,10.59-.59h.12l.08.09,17.7,18.8,5.14,5.54c.57.62,1,1.12,1.36,1.5a3,3,0,0,1,.45.54,5.91,5.91,0,0,1-.51-.48l-1.43-1.44-5.25-5.44c-4.48-4.68-10.7-11.2-17.83-18.67l.2.08-10.59.6-9.78.54h.08l-14.43,5.66.11-.11c-2.77,5.79-5.08,10.61-6.72,14l-1.91,3.89-.51,1A1.83,1.83,0,0,1,253.48,455Z" style="fill:#263238"></path><polyline points="141.28 454.97 150.76 438.51 168.05 433.69 184.22 447.44 184.22 454.97" style="fill:#ebebeb"></polyline><polygon points="150.76 438.51 184.22 447.44 168.05 433.69 150.76 438.51" style="fill:#e0e0e0"></polygon><path d="M184.22,455a2.15,2.15,0,0,1-.05-.52c0-.38,0-.87,0-1.47,0-1.36,0-3.22-.07-5.54l.05.12-16.23-13.68.24.05L164.18,435l-13.36,3.7.14-.11L144,450.46c-.84,1.4-1.51,2.52-2,3.34l-.54.88a2.34,2.34,0,0,1-.21.29,1.44,1.44,0,0,1,.14-.33l.48-.91,1.89-3.41,6.76-11.92,0-.09.1,0L164,434.53l3.94-1.09.13,0,.1.09,16.12,13.82.06.05v.08c0,2.32-.06,4.18-.08,5.54,0,.6,0,1.09,0,1.47A2.15,2.15,0,0,1,184.22,455Z" style="fill:#263238"></path><polygon points="484.56 425.38 460.56 411.71 418.42 427.06 384.38 454.97 504.8 454.35 484.56 425.38" style="fill:#f5f5f5"></polygon><polygon points="384.38 454.97 427.56 429.91 484.56 425.38 459.6 410.61 418.42 427.06 384.38 454.97" style="fill:#e0e0e0"></polygon><polygon points="446.42 454.65 467.99 439.87 487.66 438.47 471.2 442.13 462.68 454.57 446.42 454.65" style="fill:#e0e0e0"></polygon><path d="M384.38,455s0-.06.15-.15l.46-.41,1.82-1.54,6.94-5.77,24.52-20.22,0,0h0l30-12.2,11.08-4.48.12-.05.11.07,25,15,0,0,0,0,14.62,21.08,4.05,5.9,1,1.57a6.15,6.15,0,0,1,.34.54s-.14-.16-.39-.51l-1.11-1.52c-1-1.37-2.37-3.34-4.15-5.83l-14.77-21,.07.06-25-14.95.22,0-11.07,4.49-30.06,12.15.06,0-24.64,20.08-7,5.67L385,454.47l-.49.38Z" style="fill:#263238"></path><path d="M488.33,438.42a8.46,8.46,0,0,1-1.56.21l-4.29.38L468,440.13l.13,0-2.37,1.62c-5.3,3.63-10.11,6.9-13.61,9.24L448,453.7l-1.15.73c-.26.16-.41.24-.42.22a2.16,2.16,0,0,1,.36-.31l1.09-.81,4.07-2.88c3.45-2.42,8.23-5.74,13.53-9.37l2.37-1.62.06,0H468l14.48-.94,4.31-.23A11,11,0,0,1,488.33,438.42Z" style="fill:#263238"></path><polygon points="598.03 440.6 583.61 434.89 559.57 439.26 547.92 454.92 604.97 454.97 598.03 440.6" style="fill:#f5f5f5"></polygon><path d="M559.57,439.26c.7-.13,38.46,1.34,38.46,1.34l-14.42-5.7Z" style="fill:#e0e0e0"></path><path d="M547.93,454.92a1.27,1.27,0,0,1,.18-.31l.6-.86,2.32-3.23,8.36-11.4.05-.07h.09l17.89-3.28,6.15-1.12h.07l.07,0,14.4,5.74.08,0,0,.07,5,10.5,1.34,2.92.34.77a1.27,1.27,0,0,1,.1.28,1,1,0,0,1-.16-.25l-.39-.75c-.36-.7-.85-1.67-1.45-2.87-1.26-2.54-3-6.11-5.13-10.41l.11.1-14.43-5.66.14,0-6.15,1.12-17.89,3.21.14-.08c-3.5,4.63-6.42,8.51-8.52,11.28l-2.42,3.15-.65.82Q547.94,454.93,547.93,454.92Z" style="fill:#263238"></path></g><g id="freepik--Floor--inject-208"><path d="M705.1,455c0,.14-150,.26-335.08.26S34.9,455.11,34.9,455s150-.26,335.12-.26S705.1,454.82,705.1,455Z" style="fill:#263238"></path><path d="M293.6,462.91c0,.15-21.49.26-48,.26s-48-.11-48-.26,21.48-.26,48-.26S293.6,462.77,293.6,462.91Z" style="fill:#263238"></path><path d="M258,469.17c0,.14-6.79.26-15.15.26s-15.16-.12-15.16-.26,6.79-.26,15.16-.26S258,469,258,469.17Z" style="fill:#263238"></path></g></svg>
